<svg xmlns="http://www.w3.org/2000/svg" width="48" height="48" viewBox="0 0 24 24"><path fill="#7d5230" stroke="#3a2a1c" stroke-width="1.1550000000000002" stroke-linecap="round" stroke-linejoin="round" d="M5 2.5h14v2.2H5zM5 19.3h14v2.2H5z"></path><path fill="#9cc3d0" stroke="#3a2a1c" stroke-width="1.1550000000000002" stroke-linecap="round" stroke-linejoin="round" d="M7 4.7h10c0 4-5 5.8-5 7.3s5 3.3 5 7.3H7c0-4 5-5.8 5-7.3S7 8.7 7 4.7z"></path><path fill="#d3a13c" stroke="#3a2a1c" stroke-width="0.8400000000000001" stroke-linecap="round" stroke-linejoin="round" d="M8.8 7.2h6.4c-.8 1.6-3.2 2.6-3.2 3.6s-2.4-2-3.2-3.6zM8.4 19.3c.3-2 2.4-3.3 3.6-3.3s3.3 1.3 3.6 3.3z"></path><path fill="none" stroke="#94681c" stroke-width="1.05" stroke-linecap="round" stroke-linejoin="round" d="M12 12v3"></path></svg>