<svg xmlns="http://www.w3.org/2000/svg" width="48" height="48" viewBox="0 0 24 24"><path fill="#6e2219" stroke="#3a2a1c" stroke-width="1.1550000000000002" stroke-linecap="round" stroke-linejoin="round" d="M8.5 14.5 6 22l3-1.4 2.2 2 1-6.6z"></path><path fill="#6e2219" stroke="#3a2a1c" stroke-width="1.1550000000000002" stroke-linecap="round" stroke-linejoin="round" d="M15.5 14.5 18 22l-3-1.4-2.2 2-1-6.6z"></path><path fill="#a63a2c" stroke="#3a2a1c" stroke-width="1.1550000000000002" stroke-linecap="round" stroke-linejoin="round" d="M12 2.5l1.6 1.2 2-.3 1 1.7 1.9.8-.1 2 1.2 1.6-1.2 1.6.1 2-1.9.8-1 1.7-2-.3L12 17.5l-1.6-1.2-2 .3-1-1.7-1.9-.8.1-2L4.4 10.5l1.2-1.6-.1-2 1.9-.8 1-1.7 2 .3z"></path><circle fill="#d06a57" stroke="#6e2219" stroke-width="1.1550000000000002" stroke-linecap="round" stroke-linejoin="round" cx="12" cy="10" r="4.2"></circle><path fill="#f1d27e" stroke="#6e2219" stroke-width="0.9450000000000001" stroke-linecap="round" stroke-linejoin="round" d="M9.8 11.6l.6-2.8 1.6 1.4 1.6-1.4.6 2.8z"></path></svg>